<!DOCTYPE svg PUBLIC "-//W3C//DTD SVG 1.1//EN" "http://www.w3.org/Graphics/SVG/1.1/DTD/svg11.dtd">
<svg width="800px" height="300.2px" xmlns="http://www.w3.org/2000/svg" >
<path fill="#4C4040" d="M200.8,180.9c-14,13,12.103,63.101-23.8,76.5c-2,0.8-0.3,20.3,2.5,36.3c0.8,4.4,15.103,3.9,17,0
	c4-8.5-12-6.8-12-10.3c0-15.3,25.7-34.8,45-37.5c9.5-1.3,21.4-4.3,43.3-22.8c10.7-9,10.803-7.801,10.803-7.801"/>
<path d="M200.8,180.9l-0.6,0.601c-0.4,0.399-0.9,1-1.4,1.899c-1.1,1.8-2,4.8-2.3,8.7c-0.397,3.898-0.2,8.6,0.103,14
	c0.3,5.398,0.8,11.5,0.6,18.199c-0.1,3.301-0.399,6.801-1.1,10.398c-0.7,3.5-1.9,7.2-3.803,10.5c-1.897,3.4-4.697,6.4-8,8.7
	c-1.697,1.101-3.5,2.101-5.397,3c-0.5,0.2-1,0.397-1.4,0.601l-0.399,0.102c-0.103,0,0,0-0.103,0c0,0-0.1,0,0,0l-0.1,0.1
	c-0.103,0.2-0.2,0.4-0.2,0.6c-0.2,0.9-0.3,2-0.3,3c-0.103,4.201,0.3,8.4,0.7,12.701c0.397,4.299,1,8.602,1.6,12.899
	c0.3,2.2,0.7,4.3,1.1,6.5c0.103,0.899,1,1.601,2,2s2,0.601,3.103,0.7c2.2,0.199,4.397,0.1,6.5-0.301c1.1-0.199,2.1-0.5,3-1
	c0.5-0.301,0.897-0.5,1.2-0.899c0.197-0.2,0.3-0.399,0.397-0.601c0.103-0.301,0.2-0.5,0.3-0.699c0.303-1,0.4-2-0.1-2.9
	c-0.5-0.8-1.4-1.398-2.3-1.898c-1.9-0.899-4.103-1.301-6.3-1.899c-0.5-0.101-1.103-0.3-1.603-0.5c-0.5-0.198-1.1-0.399-1.6-1
	c-0.2-0.3-0.4-0.601-0.5-1c0-0.399,0-0.601,0-0.899c0-0.601,0.1-1.199,0.2-1.699c0.397-2.199,1.197-4.399,2.197-6.301
	c2.103-4,4.9-7.398,8-10.398c3.103-3.102,6.4-5.7,9.9-8.102c7-4.698,14.4-8.198,22-9.898c1.9-0.4,3.8-0.602,5.6-0.9
	c1.803-0.3,3.603-0.699,5.303-1.199c3.5-0.898,6.697-2.198,9.697-3.601c6-2.899,11.103-6.3,15.5-9.5c2.2-1.6,4.2-3.2,6-4.6l5-4.101
	c3-2.5,5.5-4.302,7.2-5.5c0.9-0.602,1.603-1,2-1.201c0.3-0.101,0.4-0.198,0.603-0.198c0.1,0,0.197,0.1,0.197,0.1s0-0.1-0.197-0.1
	c-0.103,0-0.303,0.1-0.603,0.198c-0.5,0.302-1.1,0.701-2,1.302c-1.7,1.198-4,3.198-7,5.698c-1.5,1.302-3.2,2.602-5,4.102
	c-1.897,1.398-3.8,3-6,4.6c-4.397,3.2-9.5,6.7-15.6,9.603c-3,1.397-6.3,2.8-9.8,3.698c-1.803,0.5-3.5,0.899-5.4,1.199
	c-1.9,0.301-3.7,0.5-5.6,0.9c-7.4,1.7-14.803,5.2-21.7,9.898c-3.4,2.301-6.7,5-9.8,8c-3,3-5.803,6.399-7.803,10.201
	c-1,1.898-1.8,4-2.1,6.101c-0.101,0.5-0.101,1.101-0.2,1.601c0,0.299,0,0.6,0,0.799c0,0.201,0.103,0.301,0.2,0.5
	c0.3,0.301,0.8,0.5,1.3,0.701c0.5,0.199,1,0.299,1.5,0.5c2.103,0.6,4.3,1,6.5,1.899c1,0.5,2.103,1.198,2.7,2.3
	c0.6,1.2,0.5,2.5,0.1,3.6c-0.1,0.301-0.197,0.603-0.3,0.801c-0.1,0.301-0.3,0.602-0.5,0.801c-0.397,0.5-0.897,0.801-1.5,1.102
	c-1,0.6-2.2,0.898-3.3,1.1c-2.2,0.4-4.5,0.5-6.8,0.301c-1.103-0.1-2.301-0.398-3.301-0.801c-0.5-0.199-1.102-0.5-1.5-0.898
	c-0.5-0.4-0.802-1-0.899-1.602c-0.4-2.199-0.7-4.398-1-6.5c-0.601-4.299-1.2-8.699-1.601-13c-0.399-4.299-0.699-8.5-0.699-12.699
	c0-1,0.1-2.1,0.3-3.199c0.1-0.301,0.1-0.5,0.3-0.801c0.103-0.1,0.103-0.1,0.2-0.199c0.1,0,0.1-0.102,0.1-0.102l0.103-0.1l0.3-0.102
	c0.5-0.199,1-0.398,1.4-0.602c1.897-0.8,3.697-1.8,5.3-2.898c3.3-2.199,6-5.199,7.897-8.5c1.9-3.301,3.103-6.801,3.803-10.301
	c0.697-3.5,1-7,1.1-10.301c0.2-6.699-0.2-12.8-0.5-18.199c-0.3-5.398-0.4-10.199,0-14.101c0.3-3.899,1.3-6.899,2.4-8.7
	c0.5-0.898,1.1-1.5,1.397-1.898l0.603-0.602L200.8,180.9z"/>
<path fill="#4C4040" d="M351,207.6c2,3,5.5,46.699,4.803,55c-1.303,13.3-2.803,30.6-1.303,32.5c3.603,4.5,13.303,6.699,15,0.3
	c3.303-12-7.6-4.101-6.8-9.5c2.5-15.8,3-25.8,4.3-33.3c2.303-13.602,2.9-20.301,4-26c2.5-13.301,8.5-16.4,5.803-32.102"/>
<path d="M351,207.6c0,0,0.103,0.199,0.303,0.6c0.1,0.4,0.3,1,0.5,1.7c0.3,1.5,0.697,3.8,1.1,6.7c0.8,5.8,1.7,14.1,2.5,24.1
	c0.4,5,0.7,10.4,0.9,16.2c0,1.399,0.1,2.899,0,4.399c0,1.5-0.2,3-0.303,4.5l-0.8,9.199c-0.2,3.102-0.5,6.301-0.6,9.5
	c-0.103,1.602-0.103,3.201-0.103,4.801c0,1.601,0,3.301,0.303,4.801c0,0.199,0.1,0.398,0.1,0.5c0.101,0.199,0.101,0.199,0.3,0.398
	c0.3,0.301,0.5,0.602,0.8,0.801c0.603,0.5,1.2,1,1.9,1.398c1.4,0.801,2.9,1.301,4.5,1.602c1.6,0.199,3.2,0.101,4.5-0.602
	c0.7-0.398,1.2-0.898,1.6-1.5c0.4-0.6,0.603-1.398,0.803-2.199c0.197-0.801,0.3-1.601,0.397-2.398c0-0.801,0-1.602-0.3-2.2
	c-0.3-0.601-0.899-1-1.6-1.101c-0.7-0.199-1.603-0.102-2.4-0.199c-0.399,0-0.899,0-1.3-0.102c-0.5-0.101-1-0.301-1.4-0.801
	c-0.3-0.5-0.3-1-0.3-1.5c0.101-0.5,0.101-0.8,0.2-1.3l0.7-4.899c1-6.5,1.6-12.898,2.3-19.199s1.8-12.199,2.7-17.899
	c0.897-5.7,1.6-11.101,2.5-16c0.5-2.5,1.1-4.8,1.8-7s1.6-4.2,2.3-6.101c1.5-3.801,2.4-7.199,2.5-10.199c0.101-1.5,0.101-2.801,0-3.9
	c-0.1-1.099-0.1-2.1-0.2-2.9l-0.3-2.397l0.4,2.397c0.1,0.803,0.197,1.701,0.3,2.9c0,1.1,0.1,2.4,0,3.9
	c-0.103,2.898-0.9,6.5-2.4,10.3c-0.699,1.899-1.5,3.899-2.199,6.101c-0.698,2.199-1.301,4.5-1.698,6.899
	c-0.9,4.899-1.5,10.3-2.302,16c-0.801,5.7-1.898,11.7-2.5,17.899c-0.698,6.199-1.301,12.699-2.301,19.199l-0.699,4.899
	c-0.101,0.8-0.301,1.7,0,2.101c0.302,0.399,1.102,0.5,1.899,0.5s1.7,0,2.601,0.199c0.5,0.102,0.899,0.301,1.302,0.5
	c0.397,0.301,0.8,0.7,1,1.102c0.397,0.898,0.5,1.801,0.397,2.699c0,0.899-0.199,1.701-0.397,2.602c-0.2,0.8-0.4,1.699-0.9,2.5
	c-0.5,0.8-1.2,1.398-2,1.898c-1.6,0.899-3.5,1-5.2,0.701c-1.699-0.302-3.3-0.9-4.8-1.701c-0.7-0.398-1.5-0.898-2.1-1.5
	c-0.302-0.299-0.603-0.601-0.9-0.898c-0.1-0.102-0.3-0.4-0.398-0.602c-0.102-0.199-0.102-0.398-0.199-0.699
	c-0.301-1.699-0.301-3.399-0.301-5c0-1.602,0.101-3.301,0.198-4.899c0.2-3.2,0.4-6.399,0.7-9.5s0.602-6.2,0.9-9.2
	c0.1-1.5,0.3-3,0.397-4.4c0.103-1.5,0.103-2.897,0-4.299c-0.1-5.701-0.397-11.201-0.8-16.201c-0.6-10-1.399-18.299-2.1-24.1
	c-0.302-2.9-0.7-5.199-1-6.699c-0.103-0.801-0.302-1.301-0.4-1.701c-0.1-0.397-0.2-0.6-0.2-0.6L351,207.6z"/>
<path fill="#635C56" d="M79,36.9c27.5,9.8,38,18.3,59,59c8.603,16.7,14.5,37.399,32,55.5c20,20.7,42.8,14.5,42.8,14.5
	s3.9-2.5,20.7-8.7c12.3-4.5,54.7-11.8,88.303,4.7c20.8,10.101,32.6,7.101,47,6.7c7.5-0.301,17.397,0.6,19.697-4
	c1.2-2.5,10.4-16.9,25.9-18.9s37.3,49,30.3,50.5s-16.397,1.301-22,0.801c-8-0.801-28.8-8.5-45,10.799
	c-12.1,14.303-11.3,19.5-29.5,13c-29-10.299-81.5,16.103-85.7,19.5c-10,8-40.2-12.197-45.5-21.697c-8.6-15.303-13-35.303-13-35.303
	s-9,0.603-41.5-18.897c-16-9.603-25.397-36.5-32.5-52.3c-21.3-47.5-41-65.7-77-68.5C27.7,41.4,53.8,27.9,79,36.9z"/>
<path fill="#635C56" d="M276,168.4c4.5,26.5,5.5,39.5,5,52c-0.5,11.899-1.3,18.3-2.3,29.3c-0.8,8.6-6.9,22.9-4.8,30.301
	c3,10.5,24.5,7,25.5,13.5c1.103,7.299-14.7,6.102-19.7,4.299c-4-1.5-19.4-13.799-19.8-15.799c-0.4-2.201,3.5-26.5-11.5-35.5
	c-23.7-14.201-34.5-26.301-36.8-42"/>
<path d="M276,168.4l0.5,3.2c0.3,2.1,0.9,5.1,1.5,9c0.603,3.898,1.3,8.6,2,14.1c0.7,5.4,1.2,11.6,1.3,18.4v2.6l-0.1,2.6
	c0,1.803-0.1,3.5-0.2,5.4c-0.1,1.801-0.2,3.7-0.3,5.6c-0.1,1.9-0.3,3.803-0.4,5.701l-1,11.899c-0.197,2-0.3,4.101-0.697,6.2
	c-0.4,2-0.9,4.1-1.4,6.1c-1,4.1-2.2,8.2-2.899,12.5c-0.301,2.1-0.5,4.301-0.301,6.4c0.103,1,0.4,2.1,0.801,3
	c0.5,0.898,1.102,1.8,1.899,2.5c1.601,1.398,3.7,2.3,5.8,2.898c2.103,0.699,4.3,1.102,6.5,1.602s4.4,0.898,6.603,1.6
	c1.1,0.4,2.197,0.801,3.1,1.7c0.5,0.399,0.802,1,1,1.601c0,0.199,0.103,0.3,0.103,0.5c0,0.102,0,0.3,0,0.399c0,0.3,0,0.601,0,0.899
	c-0.2,1.301-1.103,2.398-2.103,3c-1,0.699-2.2,1-3.3,1.301c-2.3,0.5-4.602,0.6-6.8,0.5c-2.301-0.102-4.5-0.4-6.7-1
	c-0.5-0.102-1.102-0.301-1.7-0.5c-0.6-0.2-1-0.5-1.5-0.801c-1-0.602-1.898-1.199-2.8-1.801c-3.7-2.5-7.102-5.299-10.4-8.101
	c-0.8-0.7-1.6-1.399-2.397-2.2c-0.801-0.8-1.603-1.5-2.301-2.5c-0.102-0.1-0.199-0.3-0.199-0.398c0-0.102-0.103-0.199-0.103-0.301
	v-0.199c0-0.301,0-0.602,0-0.899l0.103-1.601c0-1.102,0.1-2.102,0.1-3.199c0.102-4.2-0.1-8.301-0.898-12.301
	c-0.802-3.899-2.102-7.699-4.199-10.899c-1-1.601-2.301-3-3.7-4.2c-1.4-1.199-3-2.1-4.601-3.1c-3.102-1.9-6.102-3.801-8.802-5.801
	c-5.6-3.899-10.3-7.899-14.1-11.899s-6.5-8-8.2-11.601c-1.8-3.5-2.6-6.602-3.1-8.602c-0.2-1-0.4-1.8-0.5-2.398l-0.103-0.801
	l0.103,0.801c0.1,0.5,0.3,1.301,0.5,2.398c0.5,2,1.397,5,3.199,8.5c1.801,3.5,4.5,7.5,8.301,11.4c3.8,4,8.6,7.898,14.199,11.697
	c2.801,1.9,5.698,3.803,8.801,5.701c1.5,0.899,3.199,1.899,4.699,3.102c1.5,1.197,2.698,2.697,3.801,4.3
	c2.199,3.3,3.6,7.101,4.397,11.101c0.799,4,1,8.199,1,12.5c0,1.102-0.1,2.102-0.1,3.199l-0.102,1.602c0,0.301,0,0.5,0,0.801v0.199
	c0,0,0,0,0,0.101s0.102,0.2,0.199,0.3c0.603,0.801,1.4,1.601,2.103,2.301c0.8,0.699,1.6,1.5,2.397,2.199
	c3.301,2.801,6.801,5.5,10.4,8c0.897,0.601,1.8,1.2,2.8,1.801c0.5,0.3,1,0.5,1.4,0.699c0.5,0.2,1,0.4,1.5,0.5
	c2.1,0.5,4.3,0.801,6.5,0.9c2.197,0.1,4.397,0,6.6-0.4c1.101-0.199,2.101-0.6,3-1.1c0.9-0.5,1.5-1.4,1.7-2.4c0-0.199,0-0.5,0-0.699
	c0-0.101,0-0.301,0-0.398c0-0.102,0-0.2-0.1-0.302c-0.103-0.5-0.4-0.898-0.803-1.198c-0.7-0.7-1.8-1.102-2.8-1.5
	c-2.1-0.7-4.3-1.102-6.5-1.602s-4.4-0.898-6.6-1.601c-2.2-0.7-4.303-1.601-6.103-3.101c-0.897-0.801-1.6-1.699-2.1-2.699
	c-0.5-1.102-0.8-2.2-0.9-3.301c-0.2-2.301,0-4.5,0.3-6.602c0.7-4.3,1.9-8.5,2.9-12.6c0.5-2,1-4.102,1.4-6.102
	c0.397-2,0.5-4.101,0.8-6.101l1.1-11.899l0.5-5.701c0.103-1.897,0.2-3.697,0.3-5.6c0.103-1.8,0.2-3.6,0.2-5.4l0.103-2.6v-2.6
	c-0.103-6.801-0.5-12.9-1.103-18.4c-0.6-5.5-1.3-10.199-1.8-14.1c-0.5-3.901-1.1-7-1.4-9l-0.5-3.2H276V168.4z"/>
<path fill="#635C56" d="M354.802,172.2c6.6-6.699,17.697-9,20.697-3s6,26.301,8,36.4c0.303,1.5-17.8,14.898-17.3,17.3
	c0.7,3,1.8,16.5,17,31.8c2.8,2.801-14.397,22.1-15.8,24.801c-2.3,4.602-8.3-1.701-8.3-5.801c0-7.3,16.3-11.8,13-17.5
	c-4.2-7.1-32.1-25.5-29.3-30.8c5.5-10,9.7-18.8,8-20.5"/>
<path d="M354.802,172.2l0.5-0.5c0.3-0.3,0.897-0.8,1.6-1.4c1.5-1.197,3.8-2.697,7.102-3.799c1.698-0.5,3.601-1,5.698-0.801
	c1.103,0.1,2.2,0.301,3.2,0.801s2,1.299,2.603,2.399c1.1,2.2,1.8,4.7,2.5,7.399c0.697,2.601,1.3,5.398,1.897,8.398
	c1.2,5.801,2.3,12.2,3.5,18.9l0.2,1.3l0.1,0.601v0.199c0,0.102,0,0.102,0,0.102c0,0.101,0,0.101,0,0.199
	c-0.1,0.199-0.1,0.301-0.197,0.399c-0.603,0.8-1.2,1.3-1.803,2c-1.3,1.2-2.6,2.397-4,3.601c-2.697,2.399-5.5,4.699-8.197,7.301
	c-0.7,0.699-1.303,1.301-1.9,2c-0.3,0.301-0.6,0.699-0.8,1.101c-0.103,0.2-0.2,0.399-0.3,0.5c0,0.101,0,0.101,0,0.2l0.1,0.3
	c0.3,1.899,0.7,3.7,1.2,5.601c1,3.699,2.5,7.299,4.3,10.699s4.101,6.6,6.601,9.7l1.899,2.2c0.7,0.699,1.3,1.398,2,2.1l0.5,0.5
	l0.3,0.301c0.2,0.199,0.2,0.199,0.3,0.399c0.303,0.7,0.2,1.3,0,1.8c-0.3,1-0.697,1.9-1.197,2.801c-2,3.5-4.4,6.699-6.803,9.799
	c-2.397,3.201-4.897,6.201-7.3,9.303c-0.3,0.398-0.6,0.8-0.8,1.197c-0.2,0.4-0.6,0.9-1,1.303c-0.5,0.3-1.1,0.5-1.6,0.5
	c-0.603,0-1.103-0.2-1.603-0.398c-1.897-1-3.1-2.602-4-4.4c-0.397-0.899-0.7-1.899-0.8-2.899c0-1,0.3-2,0.8-2.899
	c1-1.7,2.4-3,3.9-4.2c1.5-1.198,3-2.3,4.397-3.397c1.4-1.103,2.9-2.199,3.803-3.699c0.5-0.701,0.697-1.5,0.6-2.301
	c-0.099-0.801-0.7-1.5-1.2-2.102c-1.1-1.301-2.3-2.5-3.5-3.699c-5-4.602-10.1-8.602-14.5-12.602c-2.2-2-4.397-3.898-6.3-5.898
	c-0.9-1-1.8-2-2.6-3c-0.7-1.102-1.5-2.102-1.603-3.5c0-0.301,0-0.699,0.2-1c0.1-0.301,0.3-0.5,0.4-0.801l0.8-1.5l1.6-2.898
	c1-1.801,1.9-3.602,2.603-5.102c1.5-3.102,2.5-5.699,3-7.5c0.197-0.898,0.197-1.602,0.1-2.102s-0.3-0.6-0.3-0.6s0.2,0.199,0.3,0.6
	c0.1,0.5,0.1,1.2-0.1,2.102c-0.4,1.801-1.4,4.398-2.803,7.602c-0.697,1.6-1.6,3.301-2.5,5.199l-1.5,2.898l-0.8,1.5
	c-0.1,0.301-0.3,0.5-0.397,0.801c-0.103,0.199-0.2,0.5-0.103,0.801c0.103,1.102,0.8,2.199,1.5,3.199c0.8,1,1.603,2,2.603,3
	c1.897,1.898,4,3.801,6.197,5.801c4.5,3.898,9.5,7.898,14.603,12.5c1.2,1.199,2.5,2.398,3.6,3.801c0.5,0.699,1.103,1.397,1.4,2.397
	c0.2,1-0.103,2-0.603,2.802c-1.1,1.602-2.5,2.698-4,3.801c-1.5,1.1-3,2.199-4.397,3.397c-1.4,1.2-2.8,2.5-3.7,4
	c-0.4,0.802-0.7,1.7-0.7,2.5c0,0.899,0.3,1.802,0.7,2.603c0.8,1.6,2.1,3.199,3.7,4c0.8,0.397,1.7,0.5,2.3,0
	c0.2-0.103,0.3-0.301,0.4-0.4c0.1-0.1,0.197-0.299,0.3-0.6c0.2-0.4,0.5-0.9,0.8-1.301c2.3-3.199,4.8-6.199,7.2-9.302
	c2.397-3.198,4.8-6.3,6.7-9.8c0.5-0.801,0.897-1.7,1.1-2.601c0.1-0.399,0.1-0.899,0-1.101c0-0.1-0.2-0.301-0.4-0.399l-0.5-0.5
	c-0.697-0.7-1.397-1.399-2.1-2.2l-1.9-2.3c-2.5-3.101-4.8-6.399-6.6-9.8c-1.9-3.5-3.3-7.102-4.3-10.9c-0.5-1.898-0.8-3.8-1.2-5.6
	l-0.1-0.301c0-0.199,0-0.399,0-0.5c0.1-0.301,0.197-0.5,0.3-0.801c0.3-0.398,0.6-0.799,0.897-1.199c0.603-0.699,1.303-1.399,2-2
	c2.7-2.6,5.5-4.899,8.2-7.301c1.3-1.199,2.7-2.299,4-3.5c0.603-0.601,1.3-1.199,1.7-1.799c0-0.102,0.1-0.201,0.1-0.201l0,0
	c0,0,0-0.101,0,0v-0.199l-0.1-0.6l-0.2-1.302c-1.2-6.698-2.3-13.102-3.397-18.899c-0.603-2.898-1.103-5.699-1.803-8.299
	c-0.3-1.302-0.697-2.602-1-3.802c-0.197-0.602-0.397-1.198-0.6-1.8c-0.2-0.602-0.5-1.2-0.7-1.7c-0.5-1-1.397-1.8-2.397-2.3
	s-2-0.7-3.103-0.802c-2.1-0.198-4,0.2-5.6,0.7c-3.3,1-5.603,2.602-7.103,3.699c-0.697,0.601-1.3,1-1.6,1.4l-0.5,0.5L354.802,172.2z"
	/>
<path fill="#635C56" d="M396.7,155.5c-1.5-6.702-4.397-16.899,2.4-25.899c5.6-7.301,13.5-10.301,13.5-10.301s5.3,17.801,6.897,19.5"
	/>
<path d="M396.7,155.5c-0.897-3.602-1.897-7.102-2.2-10.899c-0.1-1.9-0.1-3.7,0.2-5.601c0.3-1.899,0.8-3.7,1.5-5.399
	c0.8-1.7,1.7-3.4,2.9-4.801c0.6-0.699,1.2-1.399,1.8-2.1c0.7-0.7,1.3-1.3,2-1.9c1.4-1.199,2.9-2.3,4.5-3.3
	c0.8-0.5,1.6-0.899,2.4-1.399c0.8-0.4,1.697-0.801,2.6-1.2l0.4-0.2l0.1,0.4c0.9,3.3,1.9,6.6,3,9.899c0.5,1.601,1,3.3,1.6,4.9
	c0.303,0.8,0.603,1.6,0.9,2.399c0.2,0.4,0.3,0.801,0.5,1.2c0.2,0.4,0.4,0.8,0.6,1.101c-0.3-0.301-0.5-0.7-0.697-1.101
	c-0.2-0.399-0.4-0.8-0.603-1.2c-0.3-0.8-0.7-1.6-1-2.399c-0.6-1.601-1.2-3.2-1.8-4.9c-1.1-3.3-2.2-6.6-3.3-9.899l0.5,0.3
	c-1.7,0.7-3.3,1.6-4.8,2.5c-1.5,1-3,2.1-4.3,3.3c-0.7,0.6-1.303,1.3-2,1.9c-0.603,0.699-1.2,1.3-1.803,2
	c-1.1,1.399-2.1,2.899-2.8,4.6c-1.5,3.3-2,7-1.897,10.6c0.1,1.801,0.3,3.7,0.6,5.5C396,151.9,396.4,153.7,396.7,155.5L396.7,155.5z"
	/>
<path fill="#635C56" d="M403.802,176.2c-1,7.2,1.1,13.7,6.897,17c12,6.7,33.3,13,43.5-2.699c4.603-7.201,1.3-7.898-1.397-11.101
	c-3.303-3.899-4.9-9.2-4.7-16.3c0.2-6.301-3.9-17-16.9-21c-12.5-3.801-29.8,0.8-38,7.1c-8.1,6.3-8.5,21.599-8.5,27.2"/>
<path d="M403.802,176.2c0,0,0,0.2-0.103,0.6c0,0.4-0.1,0.9-0.1,1.603c0,1.397-0.103,3.601,0.7,6.101c0.697,2.5,2.3,5.602,5.3,7.701
	c0.8,0.5,1.6,1,2.5,1.398c0.897,0.5,1.8,0.898,2.7,1.3c1.897,0.897,3.897,1.7,6.1,2.397c4.3,1.4,9.2,2.603,14.4,2.5
	c2.6,0,5.3-0.397,7.897-1.299c2.603-0.898,5-2.301,7.103-4.201c1-0.897,2-2,2.8-3.197c0.8-1.2,1.6-2.398,2.2-3.7
	c0.6-1.3,1-2.698,0.6-4c-0.5-1.198-1.7-2.198-2.7-3.3c-2.1-2.303-3.7-5.102-4.5-8.102s-1.1-6.201-1-9.201c0.103-3-0.7-6-2-8.6
	c-1.3-2.699-3.2-5.1-5.397-7c-4.5-3.9-10.303-5.8-16-6.2c-5.7-0.399-11.2,0.3-16.303,1.601c-5,1.3-9.697,3.199-13.5,5.8
	c-1.897,1.3-3.397,2.898-4.5,4.6c-1.1,1.701-1.897,3.5-2.6,5.302c-1.2,3.5-1.8,6.698-2.1,9.399c-0.303,2.699-0.4,4.799-0.5,6.199
	c0,1.398,0,2.2,0,2.2s0-0.802,0-2.2c0-1.4,0.1-3.5,0.3-6.199c0.3-2.701,0.7-5.899,1.897-9.5c0.603-1.801,1.4-3.601,2.5-5.399
	c1.103-1.802,2.7-3.5,4.603-4.8c3.8-2.7,8.5-4.7,13.6-6.1c5.103-1.4,10.7-2.2,16.5-1.8c5.8,0.399,11.8,2.3,16.5,6.3
	c2.3,2,4.3,4.5,5.7,7.302c1.4,2.799,2.2,5.898,2.1,9.1c-0.1,3,0.103,6.101,0.9,9c0.8,2.9,2.2,5.5,4.2,7.699l1.6,1.602
	c0.5,0.6,1,1.199,1.3,2c0.303,0.8,0.303,1.699,0.103,2.398c-0.103,0.801-0.4,1.5-0.8,2.201c-0.603,1.398-1.4,2.6-2.3,3.799
	c-0.9,1.201-1.9,2.301-2.9,3.301c-2.1,2-4.7,3.4-7.4,4.301c-2.697,0.898-5.397,1.199-8.1,1.199c-5.3,0-10.3-1.199-14.6-2.699
	c-2.2-0.801-4.2-1.602-6.103-2.5c-0.897-0.5-1.897-0.9-2.7-1.4c-0.897-0.5-1.7-1-2.5-1.5c-3.1-2.199-4.6-5.397-5.3-8
	c-0.7-2.6-0.6-4.8-0.5-6.199c0-0.698,0.103-1.301,0.103-1.601L403.802,176.2L403.802,176.2z"/>
<path fill="#FFFFFF" stroke="#000000" stroke-miterlimit="10" d="M435.4,167c-3.3,3.199,1,9.398,3.9,10.299
	c2.897,0.899,6-1,5.6-3.799C444.6,170.7,441,161.5,435.4,167L435.4,167z"/>
<path d="M443.6,169.5c1.1,2.299,0.7,4.799-0.9,5.5c-1.6,0.699-3.7-0.5-4.8-2.801s-0.7-4.801,0.9-5.5
	C440.302,166,442.5,167.2,443.6,169.5L443.6,169.5z"/>
<path fill="#635C56" d="M406,158.4c-2.6-6.3-3-15.3,1.5-20.7c4.5-5.4,19.303-17.6,19.303-17.6s2.3,25.1,1.397,28.399"/>
<path d="M406,158.4c-0.8-1.8-1.397-3.8-1.8-5.7c-0.397-1.9-0.5-4-0.397-6c0.1-2,0.5-4,1.3-5.9c0.397-0.899,0.897-1.899,1.5-2.699
	c0.3-0.4,0.6-0.801,1-1.2c0.3-0.4,0.7-0.8,1-1.101c1.397-1.5,2.8-2.899,4.3-4.199c1.5-1.4,2.9-2.7,4.4-4c1.5-1.301,3-2.601,4.5-3.9
	l4.6-3.8l0.7-0.601l0.1,0.9c0.2,2.4,0.4,4.7,0.603,7.1l0.397,7.101c0.103,2.399,0.2,4.8,0.302,7.1c0,1.2,0,2.4,0,3.601
	c0,0.6,0,1.199-0.102,1.8c0,0.6-0.1,1.2-0.3,1.8c0.1-0.6,0.1-1.2,0.1-1.8c0-0.601,0-1.2,0-1.8c0-1.2-0.1-2.4-0.198-3.601l-0.5-7.1
	l-0.602-7.101l-0.6-7.1l0.697,0.3c-3.1,2.601-6.1,5.2-9.1,7.8c-1.5,1.301-3,2.601-4.4,4c-1.5,1.301-2.897,2.7-4.3,4.2
	c-0.3,0.3-0.7,0.7-1,1.101c-0.3,0.399-0.6,0.699-0.897,1.1c-0.603,0.8-1.103,1.601-1.5,2.5c-0.8,1.8-1.3,3.7-1.5,5.7
	C404,150.6,404.6,154.6,406,158.4L406,158.4z"/>
</svg>